<?xml version="1.0" standalone="no"?>
<!DOCTYPE svg PUBLIC "-//W3C//DTD SVG 20010904//EN"
 "http://www.w3.org/TR/2001/REC-SVG-20010904/DTD/svg10.dtd">
<svg version="1.0" xmlns="http://www.w3.org/2000/svg"
 width="500.000000pt" height="500.000000pt" viewBox="0 0 500.000000 500.000000"
 preserveAspectRatio="xMidYMid meet">

<g transform="translate(0.000000,500.000000) scale(0.100000,-0.100000)"
fill="#000000" stroke="none">
<path d="M3400 3614 c-30 -7 -98 -35 -150 -62 -92 -46 -902 -532 -928 -556
-14 -14 -6 -34 36 -93 12 -17 22 -36 22 -41 0 -6 19 -10 42 -9 41 2 43 1 84
-63 76 -116 51 -114 204 -15 423 275 573 383 739 534 94 85 264 278 256 290
-18 30 -210 40 -305 15z"/>
<path d="M1855 2753 c-143 -85 -318 -189 -390 -230 -71 -42 -133 -81 -137 -86
-3 -6 0 -25 9 -41 32 -62 103 -167 118 -172 9 -4 120 63 288 173 149 99 323
211 384 249 71 43 113 75 113 86 0 26 -94 168 -115 174 -5 2 -127 -67 -270
-153z"/>
<path d="M1292 1938 l3 -143 56 -3 c75 -4 106 9 117 50 9 35 -1 87 -19 99 -8
4 -6 14 6 32 20 32 12 82 -15 97 -10 6 -48 10 -85 10 l-66 0 3 -142z m118 87
c6 -8 9 -23 5 -35 -5 -15 -15 -20 -41 -20 -32 0 -34 2 -34 35 0 32 3 35 29 35
16 0 34 -7 41 -15z m10 -114 c5 -11 10 -24 10 -30 0 -20 -40 -51 -65 -51 -23
0 -25 3 -25 50 l0 50 35 0 c24 0 37 -6 45 -19z"/>
<path d="M1520 1935 l0 -145 85 0 c78 0 85 2 85 20 0 16 -8 19 -62 22 l-63 3
0 40 c0 39 1 40 38 43 30 3 37 7 35 20 -2 12 -15 18 -41 20 -37 3 -38 4 -35
40 l3 37 63 3 c54 3 62 6 62 22 0 18 -7 20 -85 20 l-85 0 0 -145z"/>
<path d="M1746 2059 c-51 -40 -30 -102 50 -142 40 -20 56 -41 48 -61 -10 -25
-49 -30 -83 -10 -23 14 -34 15 -42 7 -41 -41 68 -82 135 -52 42 19 54 88 23
127 -6 8 -33 25 -60 38 -38 20 -48 29 -45 47 3 19 9 22 55 22 58 0 72 8 53 30
-19 23 -101 20 -134 -6z"/>
<path d="M1920 2060 c0 -16 7 -20 35 -20 l34 0 3 -122 c3 -115 4 -123 23 -123
19 0 20 8 23 123 l3 122 34 0 c28 0 35 4 35 20 0 19 -7 20 -95 20 -88 0 -95
-1 -95 -20z"/>
<path d="M2292 1938 c3 -135 4 -143 23 -143 17 0 20 8 23 47 5 76 24 79 67 8
36 -60 51 -70 72 -49 9 9 3 26 -24 68 -20 31 -41 64 -46 73 -9 13 -3 26 27 63
37 45 42 75 12 75 -9 0 -35 -27 -58 -61 l-43 -61 -5 59 c-4 51 -8 58 -28 61
l-23 3 3 -143z"/>
<path d="M2514 2067 c-2 -7 -3 -71 -2 -143 3 -121 4 -129 23 -129 18 0 21 8
25 83 l5 83 45 -83 c33 -61 51 -83 65 -83 19 0 20 8 23 143 l3 143 -23 -3
c-21 -3 -23 -9 -28 -86 l-5 -83 -42 85 c-33 66 -48 86 -63 86 -11 0 -23 -6
-26 -13z"/>
<path d="M2754 2067 c-2 -7 -3 -71 -2 -143 3 -121 4 -129 23 -129 19 0 20 8
23 143 2 138 2 142 -18 142 -11 0 -23 -6 -26 -13z"/>
<path d="M2855 2067 c-3 -7 -4 -71 -3 -143 3 -121 4 -129 23 -129 18 0 20 8
23 63 l3 62 40 0 c33 0 40 3 37 18 -2 12 -14 18 -41 20 -36 3 -37 4 -37 42 l0
39 63 3 c47 2 62 7 62 18 0 21 -163 28 -170 7z"/>
<path d="M3060 1935 l0 -145 85 0 c78 0 85 2 85 20 0 16 -8 19 -62 22 l-63 3
0 40 c0 39 1 40 38 43 30 3 37 7 35 20 -2 12 -15 18 -41 20 -37 3 -38 4 -35
40 l3 37 63 3 c54 3 62 6 62 22 0 18 -7 20 -85 20 l-85 0 0 -145z"/>
<path d="M3350 1935 c0 -138 1 -145 20 -145 18 0 20 7 20 54 l0 53 52 5 c64 7
88 31 88 93 0 62 -31 85 -116 85 l-64 0 0 -145z m118 93 c7 -7 12 -26 12 -44
0 -35 -13 -44 -61 -44 -28 0 -29 2 -29 43 0 24 3 47 7 50 11 11 58 8 71 -5z"/>
<path d="M3572 1938 l3 -143 75 0 c63 0 75 3 78 18 3 14 -5 17 -52 17 l-55 0
-3 123 c-3 118 -4 122 -26 125 l-23 3 3 -143z"/>
<path d="M2127 1904 c-4 -4 -7 -13 -7 -21 0 -9 18 -13 66 -13 57 0 65 2 62 18
-2 13 -15 18 -58 20 -31 2 -59 0 -63 -4z"/>
<path d="M3267 1833 c-4 -3 -7 -15 -7 -25 0 -21 36 -25 43 -5 9 27 -17 50 -36
30z"/>
<path d="M980 1480 l0 -180 1510 0 1510 0 0 180 0 180 -1510 0 -1510 0 0 -180z
m497 88 c13 -12 23 -32 23 -45 0 -25 -40 -73 -61 -73 -7 0 -9 -11 -5 -35 5
-27 4 -35 -7 -35 -16 0 -27 21 -27 50 0 10 -6 21 -12 24 -10 5 -10 7 0 12 18
8 16 74 -2 74 -24 0 -30 22 -11 37 28 20 76 16 102 -9z m141 11 c44 -15 47
-35 12 -71 l-30 -30 30 -38 c34 -43 36 -50 16 -50 -8 0 -28 15 -44 34 -31 36
-42 32 -42 -16 0 -11 -5 -18 -12 -15 -9 2 -13 30 -13 90 0 76 2 87 20 96 26
13 27 13 63 0z m1860 -1 c-3 -7 -14 -14 -25 -16 -22 -3 -33 -41 -33 -119 0
-43 -16 -66 -30 -42 -5 7 -6 43 -3 80 l6 67 -28 -6 c-40 -7 -28 20 16 35 47
16 102 17 97 1z m-1693 -7 c3 -6 -4 -15 -15 -21 -12 -6 -25 -21 -29 -33 -7
-19 -4 -23 18 -28 l26 -6 -27 -13 c-19 -9 -28 -21 -28 -38 0 -22 3 -24 30 -18
32 6 38 -2 18 -22 -17 -17 -54 -15 -73 5 -14 13 -16 29 -12 72 8 86 21 111 56
111 16 0 32 -4 36 -9z m207 -83 c2 -51 1 -97 -2 -101 -9 -10 -24 10 -38 48 -8
22 -11 25 -11 10 -1 -26 -30 -67 -42 -60 -5 3 -15 27 -23 53 -13 41 -15 43
-15 17 -2 -41 -11 -75 -22 -75 -13 0 -9 110 5 150 9 23 19 35 32 35 16 0 20
-10 25 -58 4 -32 9 -60 11 -62 3 -3 13 23 23 57 23 77 23 78 40 78 10 0 14
-24 17 -92z m134 77 c17 -13 17 -14 2 -15 -23 0 -25 -6 -34 -78 -6 -56 -5 -62
12 -62 18 -1 18 -1 0 -15 -20 -15 -76 -21 -76 -9 0 4 6 12 14 18 16 13 29 136
14 133 -24 -5 -16 22 9 31 38 14 37 14 59 -3z m77 -69 c-2 -58 0 -77 9 -74 7
3 16 18 20 34 4 16 12 48 18 72 6 23 17 42 24 42 9 0 12 -24 12 -95 -1 -67 -5
-95 -13 -95 -7 0 -16 7 -21 16 -8 15 -10 15 -15 0 -4 -9 -15 -16 -25 -16 -34
0 -45 26 -44 105 1 80 6 99 25 92 8 -3 11 -30 10 -81z m292 -19 c3 -100 -5
-114 -30 -54 l-13 31 -16 -38 c-20 -47 -38 -43 -51 13 -13 50 -25 44 -25 -11
0 -27 -4 -38 -12 -36 -18 6 -20 53 -5 123 10 49 16 61 33 63 18 3 22 -4 27
-35 4 -21 7 -51 8 -68 l1 -30 19 40 c10 22 19 52 19 66 0 30 8 41 28 37 11 -2
15 -26 17 -101z m224 94 c19 -12 26 -101 11 -147 -7 -21 -9 -39 -4 -41 23 -8
38 -23 31 -30 -5 -4 -22 0 -38 10 -17 9 -41 17 -53 17 -32 0 -46 19 -46 65 0
102 45 160 99 126z m102 -88 c-3 -94 10 -90 36 12 12 47 23 70 33 70 8 0 13
-7 11 -15 -2 -8 -4 -50 -4 -92 -1 -55 -4 -78 -13 -78 -7 0 -15 6 -18 13 -5 10
-7 10 -12 0 -8 -18 -39 -16 -58 3 -19 18 -22 117 -6 160 19 48 33 13 31 -73z
m200 87 c13 -7 19 -21 19 -45 0 -19 5 -57 11 -85 6 -28 8 -54 5 -57 -11 -11
-36 19 -36 43 0 39 -36 25 -48 -19 -9 -36 -26 -38 -30 -5 -6 49 34 178 55 178
2 0 13 -5 24 -10z m125 -13 c-3 -13 -8 -49 -12 -81 l-7 -58 31 7 c33 7 41 -2
20 -23 -33 -33 -89 1 -83 51 3 18 7 53 10 80 5 39 10 47 27 47 16 0 19 -5 14
-23z m160 8 c17 -13 17 -14 2 -15 -23 0 -25 -6 -34 -78 -6 -56 -5 -62 12 -62
18 -1 18 -1 0 -15 -20 -15 -76 -21 -76 -9 0 4 6 12 14 18 16 13 29 136 14 133
-24 -5 -16 22 9 31 38 14 37 14 59 -3z m238 -45 c9 -65 24 -64 28 2 2 41 7 54
21 56 15 3 17 -5 17 -65 0 -90 -22 -137 -67 -141 -23 -2 -34 2 -42 17 -11 20
2 40 14 21 10 -16 32 -12 39 7 5 12 -1 23 -18 36 -22 16 -26 27 -26 66 0 80
23 81 34 1z"/>
<path d="M1430 1519 c0 -43 11 -50 34 -18 17 25 12 45 -15 52 -16 4 -19 0 -19
-34z"/>
<path d="M1580 1539 c-6 -11 -10 -24 -8 -30 4 -13 48 19 48 37 0 21 -28 17
-40 -7z"/>
<path d="M2681 1532 c-7 -12 -15 -45 -18 -72 -6 -50 -6 -50 18 -42 19 7 25 18
27 48 2 22 -1 51 -6 64 l-9 24 -12 -22z"/>
<path d="M2998 1514 c-5 -4 -8 -16 -8 -28 0 -14 3 -17 11 -9 6 6 9 19 7 28 -1
9 -6 13 -10 9z"/>
</g>
</svg>
